<svg xmlns="http://www.w3.org/2000/svg" width="1600" height="900" viewBox="0 0 1600 900" role="img" aria-labelledby="title desc">
  <title id="title">Force-Controlled HydroFlex Grinding Simulation</title>
  <desc id="desc">Nonlinear FEM-SPH modeling for internal AM-channel polishing</desc>
  <defs>
    <linearGradient id="bg" x1="0" y1="0" x2="1" y2="1">
      <stop offset="0%" stop-color="#071a2a"/>
      <stop offset="55%" stop-color="#0d3b66"/>
      <stop offset="100%" stop-color="#1769aa"/>
    </linearGradient>
    <linearGradient id="line" x1="0" y1="0" x2="1" y2="0">
      <stop offset="0%" stop-color="#60c4e8" stop-opacity="0.25"/>
      <stop offset="100%" stop-color="#ffffff" stop-opacity="0.9"/>
    </linearGradient>
  </defs>
  <rect width="1600" height="900" fill="url(#bg)"/>
  <g opacity="0.22">
    <path d="M-40 180 C220 70 350 360 590 210 S990 40 1240 210 S1470 280 1680 120" fill="none" stroke="#ffffff" stroke-width="4"/>
    <path d="M-40 300 C180 180 370 450 610 330 S1030 180 1260 320 S1470 430 1680 270" fill="none" stroke="#ffffff" stroke-width="3"/>
    <path d="M-40 450 C180 330 370 600 610 480 S1030 330 1260 470 S1470 580 1680 420" fill="none" stroke="#ffffff" stroke-width="3"/>
    <path d="M-40 610 C180 490 370 760 610 640 S1030 490 1260 630 S1470 740 1680 580" fill="none" stroke="#ffffff" stroke-width="3"/>
  </g>
  <g opacity="0.55">
    <circle cx="1260" cy="275" r="165" fill="none" stroke="url(#line)" stroke-width="9"/>
    <circle cx="1260" cy="275" r="110" fill="none" stroke="#ffffff" stroke-opacity="0.55" stroke-width="3"/>
    <path d="M1130 275 H1390 M1260 145 V405" stroke="#ffffff" stroke-opacity="0.65" stroke-width="3"/>
    <circle cx="1260" cy="275" r="16" fill="#ffffff"/>
  </g>
  <rect x="90" y="102" width="110" height="8" fill="#7bd2f6"/>
  <text x="90" y="232" font-size="72" font-family="Arial, Helvetica, sans-serif" font-weight="700" fill="#ffffff">Force-Controlled HydroFlex Grinding Simulation</text>
  <text x="95" y="323" font-size="32" font-family="Arial, Helvetica, sans-serif" fill="#dcecf6">Nonlinear FEM-SPH modeling for internal AM-channel polishing</text>
  <text x="95" y="530" font-size="26" font-family="Arial, Helvetica, sans-serif" fill="#dcecf6">Nathan Maldonado | Mechanical Engineering Portfolio</text>
  <rect x="110" y="610" rx="20" ry="20" width="130" height="48" fill="#ffffff" fill-opacity="0.12"/><text x="128" y="641" font-size="23" font-family="Arial, Helvetica, sans-serif" fill="#eaf4fb">LS-DYNA</text><rect x="258" y="610" rx="20" ry="20" width="130" height="48" fill="#ffffff" fill-opacity="0.12"/><text x="276" y="641" font-size="23" font-family="Arial, Helvetica, sans-serif" fill="#eaf4fb">FEM-SPH</text><rect x="406" y="610" rx="20" ry="20" width="245" height="48" fill="#ffffff" fill-opacity="0.12"/><text x="424" y="641" font-size="23" font-family="Arial, Helvetica, sans-serif" fill="#eaf4fb">Abrasive Grinding</text>
</svg>